<?xml version="1.0" encoding="UTF-8"?>
<!DOCTYPE svg PUBLIC "-//W3C//DTD SVG 1.1//EN" "http://www.w3.org/Graphics/SVG/1.1/DTD/svg11.dtd">
<!-- Creator: CorelDRAW X8 -->
<svg xmlns="http://www.w3.org/2000/svg" xml:space="preserve" width="68.516mm" height="70.53mm" version="1.1" style="shape-rendering:geometricPrecision; text-rendering:geometricPrecision; image-rendering:optimizeQuality; fill-rule:evenodd; clip-rule:evenodd"
viewBox="0 0 6852 7053"
 xmlns:xlink="http://www.w3.org/1999/xlink">
 <defs>
  <style type="text/css">
   <![CDATA[
    .str7 {stroke:#1C1B17;stroke-width:75}
    .str10 {stroke:#FEFEFE;stroke-width:40}
    .str11 {stroke:#FEFEFE;stroke-width:30}
    .str0 {stroke:#1C1B17;stroke-width:25}
    .str12 {stroke:#FEFEFE;stroke-width:20}
    .str14 {stroke:#1C1B17;stroke-width:20}
    .str6 {stroke:#FEFEFE;stroke-width:10}
    .str15 {stroke:#2B2A29;stroke-width:10}
    .str3 {stroke:#2B2A29;stroke-width:7.62}
    .str9 {stroke:#1C1B17;stroke-width:7.62}
    .str1 {stroke:#1C1B17;stroke-width:7.62}
    .str13 {stroke:#FEFEFE;stroke-width:20;stroke-linejoin:round}
    .str2 {stroke:#FEFEFE;stroke-width:10;stroke-linejoin:round}
    .str5 {stroke:#1C1B17;stroke-width:10;stroke-linejoin:round}
    .str8 {stroke:#1C1B17;stroke-width:7.62;stroke-linejoin:round}
    .str4 {stroke:#1C1B17;stroke-width:7.62;stroke-linejoin:round}
    .fil2 {fill:none}
    .fil0 {fill:#FEFEFE}
    .fil3 {fill:#1C1B17}
    .fil1 {fill:#1C1B17}
    .fil4 {fill:#2B2A29;fill-rule:nonzero}
   ]]>
  </style>
 </defs>
 <g id="Слой_x0020_1">
  <metadata id="CorelCorpID_0Corel-Layer"/>
  <g id="_1201141824">
   <path class="fil0 str0" d="M4042 1196c1261,0 2284,1023 2284,2284 0,1262 -1023,2284 -2284,2284 -1261,0 -2284,-1022 -2284,-2284 0,-1261 1023,-2284 2284,-2284z"/>
   <path class="fil1 str1" d="M4042 1274c1219,0 2207,988 2207,2206 0,1219 -988,2207 -2207,2207 -1219,0 -2207,-988 -2207,-2207 0,-1218 988,-2206 2207,-2206z"/>
   <path class="fil1 str2" d="M2507 5248c-229,213 -369,485 -419,816l308 0c31,-270 165,-472 362,-633l-241 -183c-3,-3 -7,-3 -10,0z"/>
   <path class="fil1 str2" d="M5064 5585c128,143 193,307 223,481l302 2c-30,-228 -108,-442 -244,-639l-281 156z"/>
   <path class="fil0 str1" d="M2645 5028c-386,-385 -610,-807 -667,-1267 -44,-283 45,-426 217,-473 177,-58 376,25 590,202 225,214 514,274 861,187 189,-48 276,23 248,229 -46,268 -230,478 -615,604 -263,101 -398,247 -445,424 -10,118 -96,173 -189,94z"/>
   <path class="fil0 str1" d="M4683 5469c-525,149 -1003,136 -1432,-39 -268,-101 -349,-248 -305,-421 35,-183 205,-316 464,-416 298,-91 491,-313 586,-659 50,-187 155,-229 321,-103 211,171 304,435 225,832 -41,279 21,468 151,595 99,67 104,169 -10,211z"/>
   <path class="fil0 str3" d="M6081 3924c-135,529 -386,935 -754,1218 -221,181 -389,177 -517,53 -140,-123 -169,-337 -126,-611 71,-303 -24,-582 -275,-837 -137,-138 -120,-249 72,-330 254,-96 528,-44 832,224 221,176 415,217 591,168 107,-51 199,-5 177,115z"/>
   <path class="fil0 str3" d="M5462 1955c384,388 605,811 660,1272 42,283 -48,425 -220,471 -177,58 -376,-27 -589,-205 -224,-215 -512,-277 -860,-192 -189,47 -276,-25 -246,-231 47,-267 232,-476 618,-600 264,-100 399,-245 447,-421 11,-119 98,-173 190,-94z"/>
   <path class="fil0 str1" d="M3404 1513c525,-147 1003,-133 1432,44 267,101 348,248 304,421 -36,183 -207,315 -466,415 -297,90 -491,312 -587,657 -51,188 -156,229 -321,102 -211,-171 -303,-435 -223,-832 41,-279 -20,-468 -150,-596 -98,-67 -104,-169 11,-211z"/>
   <path class="fil0 str3" d="M2006 3034c145,-526 403,-928 776,-1204 224,-177 392,-171 518,-43 138,124 163,339 114,612 -75,302 14,582 261,842 134,141 116,251 -78,328 -256,92 -529,35 -828,-238 -218,-180 -411,-224 -588,-179 -108,50 -198,2 -175,-118z"/>
   <polygon class="fil1 str2" points="2804,4874 2539,4849 2668,4988 "/>
   <polygon class="fil1 str4" points="2844,4793 2446,4737 2479,4780 2825,4830 "/>
   <polygon class="fil1 str4" points="2834,4734 2705,4726 2833,4664 "/>
   <path class="fil1 str4" d="M2870 4432l-484 211 259 59 322 -137c68,-37 43,-185 -97,-133z"/>
   <path class="fil1 str2" d="M3308 3751c-93,164 -149,391 -105,755 -143,73 -238,136 -329,254l-4 -113c247,-25 227,-310 1,-253l-2 -780c148,102 294,147 439,137z"/>
   <path class="fil1 str5" d="M2183 3357c-61,-2 -140,113 -150,232 16,428 159,754 342,1029 32,-13 56,-22 84,-36 -126,-409 -221,-823 -276,-1225z"/>
   <path class="fil1 str2" d="M2190 5462c21,-149 68,-279 140,-393l152 147c-77,69 -141,146 -207,251l-85 -5z"/>
   <path class="fil1 str2" d="M3666 5023l-630 -109c-57,127 -78,258 29,347 233,-93 488,-85 770,53 246,-134 526,-159 833,-38 -186,-159 -211,-444 -133,-785 6,-164 -8,-276 -37,-361 -9,432 -151,734 -516,820 -82,218 -239,241 -316,73z"/>
   <polygon class="fil1 str4" points="3680,4943 3064,4849 3046,4884 3670,4986 "/>
   <path class="fil1 str2" d="M3641 4836c-130,12 -225,-47 -291,-169 65,-38 152,-65 306,-59 98,4 155,-44 228,-100 -53,173 -120,314 -243,328z"/>
   <path class="fil1 str2" d="M4062 4773c98,-150 194,-342 292,-524l3 402c-56,76 -112,139 -170,176 -19,-22 -64,-39 -125,-54z"/>
   <path class="fil1 str2" d="M3112 4807l359 53 -157 -179c-75,30 -142,72 -202,126z"/>
   <path class="fil1 str6" d="M4430 4007c-52,-71 -106,-126 -161,-172l-549 1119c-37,90 99,191 170,85l540 -1032z"/>
   <path class="fil0 str6" d="M2917 4465c21,0 37,16 37,37 0,20 -16,37 -37,37 -20,0 -37,-17 -37,-37 0,-21 17,-37 37,-37z"/>
   <path class="fil0 str1" d="M3810 4938c28,0 51,23 51,52 0,29 -23,52 -51,52 -28,0 -51,-23 -51,-52 0,-29 23,-52 51,-52z"/>
   <path class="fil1 str4" d="M4120 3862l11 174 109 -222c-94,-42 -123,-39 -120,48z"/>
   <path class="fil1 str2" d="M4742 5045c112,187 239,236 378,178 -96,-100 -200,-167 -313,-205l0 -1589 -52 0c-69,151 -133,282 -194,410 152,204 199,383 190,549 -28,267 -56,516 -9,657z"/>
   <path class="fil1 str2" d="M4381 3647l153 152c49,-111 118,-236 177,-374 -223,26 -362,87 -330,222z"/>
   <path class="fil1 str2" d="M3441 2985c-137,233 -330,323 -571,289l-2 79c168,129 333,205 493,207 102,0 203,-11 307,-62 74,-52 76,-115 27,-186 -104,-105 -180,-210 -254,-327z"/>
   <path class="fil1 str2" d="M3411 2886c-79,250 -247,354 -477,358 185,-45 322,-145 362,-358l115 0z"/>
   <path class="fil1 str2" d="M2344 2694c-82,130 -155,270 -199,438 -60,6 -91,-13 -87,-65 5,-87 59,-234 135,-409 39,31 87,47 151,36z"/>
   <path class="fil2 str7" d="M2683 2487c38,0 68,31 68,69 0,37 -30,68 -68,68 -38,0 -68,-31 -68,-68 0,-38 30,-69 68,-69z"/>
   <path class="fil1 str4" d="M2697 2229c192,30 78,279 -78,158l15 -30c110,98 197,-79 48,-96l15 -32z"/>
   <path class="fil1 str4" d="M2499 2592c192,30 78,279 -78,158l15 -30c110,98 197,-79 48,-96l15 -32z"/>
   <polygon class="fil1 str4" points="2364,2656 2502,2722 2524,2683 2389,2613 "/>
   <polygon class="fil1 str4" points="2570,2284 2707,2350 2729,2311 2594,2241 "/>
   <polygon class="fil3 str8" points="2257,2523 2211,2615 2314,2650 2355,2583 "/>
   <polygon class="fil3 str8" points="2508,2145 2441,2229 2532,2261 2573,2193 "/>
   <polygon class="fil3 str8" points="2505,2320 2376,2529 2277,2480 2425,2257 "/>
   <polygon class="fil3 str9" points="2440,2557 2418,2546 2539,2345 2557,2362 "/>
   <path class="fil1 str2" d="M3388 2113l-761 -81c25,-33 64,-71 111,-111l635 75c15,52 21,93 15,117z"/>
   <path class="fil1 str2" d="M4185 2308c-61,367 -253,546 -587,523 52,117 119,223 219,308 96,81 196,36 210,-30 44,-213 122,-383 278,-548 -64,-86 -101,-170 -120,-253z"/>
   <path class="fil1 str2" d="M4137 2303c-42,347 -221,457 -428,488 148,-120 206,-313 173,-579 99,-11 182,25 255,91z"/>
   <path class="fil1 str2" d="M4222 2251l-101 -29c-5,-62 5,-122 29,-177l100 3c-32,63 -37,135 -28,203z"/>
   <path class="fil1 str2" d="M4092 2193l-488 -52c1,-32 -2,-72 -9,-121l499 55 -2 118z"/>
   <path class="fil1 str10" d="M4882 2070c24,0 42,18 42,42 0,23 -18,42 -42,42 -23,0 -42,-19 -42,-42 0,-24 19,-42 42,-42z"/>
   <path class="fil1 str1" d="M4413 2020c85,0 154,69 154,154 0,85 -69,155 -154,155 -85,0 -155,-70 -155,-155 0,-85 70,-154 155,-154z"/>
   <path class="fil1 str2" d="M4414 2371c-80,0 -138,-37 -191,-93 21,91 57,174 118,246 108,-74 105,-87 303,-174 120,-46 188,-88 305,-141 142,-107 257,-351 30,-536 -129,-69 -268,-124 -417,-165 -214,115 -318,294 -360,510 18,-4 45,5 88,4 54,-49 136,-74 232,-25 71,59 84,78 93,179 -8,136 -109,201 -201,195z"/>
   <path class="fil2 str11" d="M4413 2059c63,0 115,52 115,115 0,64 -52,116 -115,116 -64,0 -116,-52 -116,-116 0,-63 52,-115 116,-115z"/>
   <path class="fil2 str11" d="M4413 2131c24,0 43,19 43,43 0,24 -19,44 -43,44 -24,0 -44,-20 -44,-44 0,-24 20,-43 44,-43z"/>
   <path class="fil1 str6" d="M4257 3212c-41,-186 55,-361 205,-506 86,63 185,106 299,132l-201 386c-63,23 -129,31 -171,49 -87,10 -123,-17 -132,-61z"/>
   <path class="fil1 str2" d="M4972 2452l-192 341c-116,-32 -207,-72 -276,-117 100,-86 293,-164 468,-224z"/>
   <path class="fil1 str4" d="M5428 1974l-616 1246c-63,-7 -128,-7 -195,-3l432 -822c129,-83 232,-220 264,-390 31,-57 69,-65 115,-31z"/>
   <path class="fil1 str2" d="M5559 2125c-13,323 -187,525 -471,646l371 -761c36,37 69,73 100,115z"/>
   <path class="fil1 str4" d="M6573 2570l-375 0c-14,-36 -32,-71 -50,-106l425 0c43,11 44,96 0,106z"/>
   <path class="fil1 str5" d="M5875 2570l-426 -3c26,-30 50,-65 71,-103l298 0c20,33 39,67 57,106z"/>
   <path class="fil1 str2" d="M5535 1395l-464 2c121,61 237,133 352,219l112 -221z"/>
   <path class="fil1 str4" d="M5701 1176l-242 446c36,24 69,52 104,83l232 -485 -94 -44z"/>
   <polygon class="fil1 str2" points="6318,1734 5598,1728 5720,1848 6318,1848 "/>
   <polygon class="fil1 str2" points="6016,1395 6292,1697 5607,1697 5756,1395 "/>
   <path class="fil1 str8" d="M5927 976c-70,65 -118,134 -72,220 -80,4 -132,-28 -166,-85 80,-9 123,-73 133,-185 8,-139 75,-210 153,-266 59,-39 80,-31 78,35 -13,119 -42,224 -126,281z"/>
   <path class="fil1 str6" d="M3906 1547c-91,4 -122,18 -13,47 -98,20 -88,45 -10,75 -96,25 -84,52 -1,81 -84,29 -88,54 4,75 -84,35 -72,61 11,80 -74,40 -46,64 15,79 -45,23 -39,38 13,44l178 7 13 -29 41 3c58,-229 142,-373 278,-473l-529 11z"/>
   <path class="fil1 str2" d="M5469 1363c66,-43 49,-55 -35,-54 63,-70 50,-89 -41,-56 58,-67 59,-97 -47,-57 55,-83 48,-110 -53,-55 58,-96 43,-116 -53,-49 53,-100 40,-123 -59,-45 39,-102 31,-131 -55,-37 29,-94 22,-129 -65,-36 21,-110 1,-126 -67,-31 11,-111 -11,-120 -65,-23 0,-110 -24,-120 -72,-18 -9,-116 -37,-110 -80,-13 -18,-98 -43,-106 -75,-4 -33,-95 -59,-96 -77,3 -35,-94 -59,-105 -66,9 -55,-90 -83,-96 -77,17 -55,-82 -83,-87 -69,23 -58,-75 -92,-92 -71,30 -70,-75 -98,-75 -64,34 -84,-76 -104,-61 -62,40 -80,-58 -115,-61 -59,45 -79,-52 -115,-54 -56,50 -104,-22 -100,-10 -23,24 336,2 633,71 936,204l455 -1z"/>
   <path class="fil1 str4" d="M4494 1495c-284,-58 -491,-74 -822,5l822 -5z"/>
   <path class="fil1 str8" d="M1794 2482l-18 434c47,-166 88,-306 125,-383l-107 -51z"/>
   <path class="fil1 str2" d="M1963 2399l-46 92 -1744 -779c-40,-18 -45,-46 -24,-82l393 -695c26,-42 49,-48 93,-23l1325 872 -230 -19 -1077 -689c-53,-39 -96,-40 -131,12l-231 408c-37,65 -30,118 44,149l1628 754z"/>
   <path class="fil1 str10" d="M4882 2070c24,0 42,18 42,42 0,23 -18,42 -42,42 -23,0 -42,-19 -42,-42 0,-24 19,-42 42,-42z"/>
   <path class="fil1 str1" d="M4413 2020c85,0 154,69 154,154 0,85 -69,155 -154,155 -85,0 -155,-70 -155,-155 0,-85 70,-154 155,-154z"/>
   <path class="fil2 str12" d="M4413 2059c63,0 115,52 115,115 0,64 -52,116 -115,116 -64,0 -116,-52 -116,-116 0,-63 52,-115 116,-115z"/>
   <path class="fil2 str12" d="M4413 2131c24,0 43,19 43,43 0,24 -19,44 -43,44 -24,0 -44,-20 -44,-44 0,-24 20,-43 44,-43z"/>
   <path class="fil1 str2" d="M4494 1495c-284,-58 -491,-74 -822,5l822 -5z"/>
   <path class="fil1 str1" d="M1316 1667c85,0 154,69 154,154 0,85 -69,154 -154,154 -85,0 -154,-69 -154,-154 0,-85 69,-154 154,-154z"/>
   <path class="fil2 str11" d="M1316 1705c64,0 116,52 116,116 0,64 -52,115 -116,115 -64,0 -115,-51 -115,-115 0,-64 51,-116 115,-116z"/>
   <path class="fil2 str11" d="M1316 1778c24,0 43,19 43,43 0,24 -19,43 -43,43 -24,0 -43,-19 -43,-43 0,-24 19,-43 43,-43z"/>
   <path class="fil1 str1" d="M1316 1667c85,0 154,69 154,154 0,85 -69,154 -154,154 -85,0 -154,-69 -154,-154 0,-85 69,-154 154,-154z"/>
   <path class="fil2 str12" d="M1316 1705c64,0 116,52 116,116 0,64 -52,115 -116,115 -64,0 -115,-51 -115,-115 0,-64 51,-116 115,-116z"/>
   <path class="fil2 str12" d="M1316 1778c24,0 43,19 43,43 0,24 -19,43 -43,43 -24,0 -43,-19 -43,-43 0,-24 19,-43 43,-43z"/>
   <path class="fil1 str2" d="M1514 1742c185,-16 162,251 -24,189 24,-45 41,-107 24,-189z"/>
   <path class="fil3 str2" d="M1675 1806c13,30 8,69 -10,105l600 66c28,-36 59,-74 94,-112l-684 -59z"/>
   <path class="fil1 str13" d="M2013 2315l-25 46 -1630 -749c-37,-18 -47,-55 -13,-120l186 -338c31,-64 74,-72 129,-28l911 578 -83 7c-32,-61 -92,-89 -173,-90 -126,19 -182,82 -189,201 2,92 47,165 177,190 66,8 117,-7 164,-47l166 11 19 -32 194 37c-203,20 -148,234 167,334z"/>
   <path class="fil3 str2" d="M2110 2165c-307,-293 -530,-50 -79,119l79 -119z"/>
   <path class="fil3 str2" d="M2221 2027l-289 -32c71,30 137,62 206,140l83 -108z"/>
   <path class="fil3 str8" d="M169 1487c-156,-103 97,-529 263,-457l-263 457z"/>
   <path class="fil3 str8" d="M125 1244c-77,-24 -97,56 -22,76 1,-26 9,-51 22,-76z"/>
   <path class="fil3 str8" d="M252 1056c-53,-40 -106,5 -53,57 14,-20 32,-39 53,-57z"/>
   <polygon class="fil3 str2" points="2457,1516 2472,1767 2396,1836 2054,1798 1877,1672 1902,1499 "/>
   <path class="fil3 str2" d="M1856 1542l-19 105 -483 -321c104,-35 97,-123 19,-245 -129,-190 -85,-389 4,-600l188 78c-116,197 -101,339 10,438 67,61 101,118 152,245 -67,44 -95,104 -86,177 17,97 108,158 215,123z"/>
   <path class="fil2 str14" d="M1799 1276c64,0 115,52 115,115 0,64 -51,116 -115,116 -64,0 -115,-52 -115,-116 0,-63 51,-115 115,-115z"/>
   <path class="fil2 str14" d="M1799 1348c24,0 43,20 43,43 0,24 -19,44 -43,44 -24,0 -43,-20 -43,-44 0,-23 19,-43 43,-43z"/>
   <path class="fil3 str8" d="M1349 1113c28,43 41,74 30,86l-418 -272c-27,-18 -48,-22 -69,2l-59 74 -51 -34 116 -183c11,-16 26,-18 42,-7l409 334z"/>
   <path class="fil3 str2" d="M856 1018l462 291c52,-25 78,-46 63,-67l-426 -272c-32,-23 -49,-14 -71,14l-28 34z"/>
   <path class="fil3 str8" d="M957 610c48,180 174,299 324,381 -15,-33 -31,-81 -31,-132 -101,-57 -163,-146 -184,-266 -14,-91 -127,-72 -109,17z"/>
   <path class="fil3 str8" d="M2228 738c164,94 213,303 198,576l-316 -8c127,-110 140,-228 -3,-355 -217,-41 -296,-154 -282,-314l403 101z"/>
   <path class="fil3 str2" d="M2470 685c-92,160 -1725,-409 -1724,-608 124,181 1551,662 1724,608z"/>
   <path class="fil3 str2" d="M2480 640c-106,-192 -1445,-669 -1706,-592 136,180 1502,657 1706,592z"/>
   <path class="fil3 str2" d="M3077 1372l-1119 -30c6,41 4,79 -5,114l935 17c59,-38 123,-71 189,-101z"/>
   <path class="fil2 str12" d="M4050 3283c113,0 205,92 205,205 0,114 -92,206 -205,206 -114,0 -206,-92 -206,-206 0,-113 92,-205 206,-205z"/>
   <path class="fil2 str12" d="M4050 3359c71,0 129,58 129,129 0,72 -58,130 -129,130 -72,0 -130,-58 -130,-130 0,-71 58,-129 130,-129z"/>
  </g>
  <path class="fil3 str8" d="M883 6079c1975,-80 3950,-84 5925,0l-5925 0z"/>
  <path class="fil3 str8" d="M1214 6933c1349,82 3901,79 5250,-7l-5250 7z"/>
  <g id="_1201145120">
   <path class="fil4 str15" d="M1736 6383l0 117 289 0c30,0 52,-4 64,-12 15,-8 22,-23 22,-45 0,-20 -6,-35 -19,-44 -14,-10 -36,-16 -67,-16l-289 0zm-44 320l0 -355 315 0c99,0 148,30 148,91 0,24 -7,43 -19,57 -9,10 -20,16 -34,20 9,2 17,5 26,10 26,16 39,40 39,73 0,38 -13,65 -38,82 -23,15 -60,22 -111,22l-326 0zm44 -168l0 132 299 0c29,0 51,-5 66,-16 15,-11 22,-28 22,-52 0,-23 -8,-39 -23,-49 -16,-10 -38,-15 -69,-15l-295 0z"/>
   <path class="fil4 str15" d="M2316 6703l-48 0 219 -355 68 0 219 355 -51 0 -54 -89 -298 0 -55 89zm79 -125l251 0 -126 -205 -125 205z"/>
   <polygon class="fil4 str15" points="2880,6703 2880,6348 2978,6348 3304,6666 3304,6348 3348,6348 3348,6703 3284,6703 2948,6375 2924,6375 2924,6703 "/>
   <polygon class="fil4 str15" points="3482,6703 3482,6348 3580,6348 3906,6666 3906,6348 3950,6348 3950,6703 3887,6703 3551,6375 3526,6375 3526,6703 "/>
   <polygon class="fil4 str15" points="4156,6703 4112,6703 4112,6348 4156,6348 "/>
   <polygon class="fil4 str15" points="4317,6703 4317,6348 4361,6348 4361,6500 4432,6500 4700,6348 4777,6348 4478,6517 4785,6703 4708,6703 4434,6536 4361,6536 4361,6703 "/>
   <path class="fil4 str15" d="M5341 6468c0,-35 -8,-59 -22,-71 -15,-11 -44,-17 -87,-17l-186 0c-41,0 -70,6 -87,19 -18,12 -26,35 -26,69l0 113c0,34 8,57 24,69 17,11 46,17 89,17l186 0c44,0 73,-5 88,-17 14,-11 21,-34 21,-69l0 -113zm44 113c0,49 -12,82 -34,99 -21,15 -61,23 -119,23l-186 0c-57,0 -98,-9 -122,-27 -23,-18 -35,-49 -35,-95l0 -110c0,-46 11,-79 34,-98 23,-19 64,-29 123,-29l186 0c55,0 93,8 115,25 25,18 38,52 38,102l0 110z"/>
   <polygon class="fil4 str15" points="5935,6348 5739,6663 5730,6663 5535,6348 5484,6348 5711,6703 5758,6703 5986,6348 "/>
  </g>
 </g>
</svg>
